<svg xmlns="http://www.w3.org/2000/svg" viewBox="0 0 200 200" style="enable-background:new 0 0 200 200" xml:space="preserve"><path d="M170.61 27.67h-12.06v-15.5c0-2.86-2.3-5.17-5.17-5.17H25.94c-2.86 0-5.17 2.3-5.17 5.17v58.56c0 2.86 2.3 5.17 5.17 5.17h127.44c2.86 0 5.17-2.3 5.17-5.17V41.44h6.89V84.5H89.88c-4.76 0-8.61 3.85-8.61 8.61v29.28H71.8c-.95 0-1.72.78-1.72 1.72v49.08c0 .13.02.28.04.41-.02.43-.04.88-.04 1.31 0 9.99 8.09 18.08 18.08 18.08s18.08-8.09 18.08-18.08c0-.45-.02-.88-.04-1.31.02-.13.04-.26.04-.41v-49.08c0-.95-.78-1.72-1.72-1.72h-9.47V98.28h75.56c4.76 0 8.61-3.85 8.61-8.61V36.28c0-4.76-3.85-8.61-8.61-8.61zm-25.83 34.44H34.56V20.78h110.22v41.33zM92.47 174.92c0 2.37-1.94 4.31-4.31 4.31s-4.31-1.94-4.31-4.31v-38.75h8.61v38.75z"/></svg>