<svg viewBox="0 0 20 20" xmlns="http://www.w3.org/2000/svg"><path d="m17.2 9.9-1.4-2.8c-.2-.5-.7-.8-1.3-.8h-2.2V2.7c0-.6-.5-1-1-1H9.6c-.6 0-1 .5-1 1v3.5H6.3c-.5 0-1 .3-1.3.8L3.6 9.9c-.2.3-.2.7 0 1 .2.3.5.5.9.5-.1 1.9-.7 3.8-1.7 5.2-.2.3-.3.8-.1 1.1.2.4.6.6 1 .6h11.2c.6 0 1.2-.4 1.4-1.1.3-1 .5-2 .5-3.1 0-1-.2-1.9-.6-2.8.4 0 .7-.2.9-.5.3-.2.3-.6.1-.9zm-12.6.4L6 7.6c0-.2.2-.3.3-.3h2.2c.6 0 1.1-.5 1.1-1.1V2.7h1.7v3.5c0 .6.5 1.1 1.1 1.1h2.2c.2 0 .3.1.4.2l1.4 2.8H4.6c0 .1 0 .1 0 0 0 .1 0 0 0 0zm11.2 3.9c0 .9-.2 1.8-.5 2.8 0 .2-.2.3-.4.3h-2.3c.2-.4.3-.8.4-1.1.1-.5.2-1 .2-1.4 0-.3-.3-.6-.6-.5-.3 0-.4.3-.4.5 0 .8-.3 1.8-.8 2.6H8c.3-.4.5-.8.6-1.1.2-.6.4-1.1.4-1.5.1-.3-.2-.6-.5-.6s-.5.2-.5.4c-.1.3-.2.7-.3 1.1-.2.5-.5 1.1-1 1.5H3.8c.6-.8 1-1.8 1.3-2.8.3-1 .5-2 .5-3h9.5c.5.9.7 1.8.7 2.8z"/></svg>