<svg viewBox="0 0 20 20" xmlns="http://www.w3.org/2000/svg"><path d="M201.31 434.328h19.419a135.927 135.927 0 010 271.853H201.31v155.344h155.344V839.7a133.519 133.519 0 11267.038 0v21.826h121.324v-232.9l77.672-.117a77.711 77.711 0 000-155.344h-77.672V317.819H589.672v-77.672a77.672 77.672 0 10-155.344 0v77.672H201.31v116.509zM512 84.802a155.345 155.345 0 01155.345 155.345h155.344v155.345a155.345 155.345 0 01.039 310.728l-.039 232.978H546.02v-99.499a55.846 55.846 0 00-111.692 0v99.499h-310.69v-310.69h97.09a58.254 58.254 0 000-116.508h-97.09V240.147h233.017A155.345 155.345 0 01512 84.802z"/></svg>
