<svg xmlns="http://www.w3.org/2000/svg" viewBox="0 0 200 200"><path d="m151.2 138.9 37.3 37.3-12.3 12.3-37.3-37.3c-13.9 11.1-31.2 17.2-48.9 17.1-29.8 0-57-16.9-70.2-43.5h52.8l-11.4 18.9c8.8 4.7 18.7 7.2 28.8 7.2 15.9 0 31.1-6.1 42.5-17.2l1.3-1.3C144.9 121 151 105.8 151 89.9c0-6.1-.9-11.9-2.5-17.4h18c1.3 5.6 1.9 11.4 1.9 17.4-.1 17.8-6.1 35.1-17.2 49zm9-83.8h-52.8l11.4-18.9C110 31.5 100.1 29 90 29c-33.7 0-61 27.3-61 61 0 6.1.9 11.9 2.5 17.4h-18c-1.3-5.7-1.9-11.6-1.9-17.4 0-43.3 35.1-78.4 78.4-78.4 29.7-.1 56.9 16.8 70.2 43.5z"/></svg>