<svg xmlns="http://www.w3.org/2000/svg" viewBox="0 0 20 20"><path d="M7.8 10c0 .4.3.8.8.8h9.5c.4 0 .8-.3.8-.8s-.3-.8-.8-.8H8.6c-.5 0-.8.4-.8.8zM1.3 6.2l2.4-3.4c.1-.2.4-.2.6-.1l.1.1 2.2 3.4c.1.2.1.4-.1.6-.1 0-.1.1-.2.1H1.6c-.2 0-.4-.2-.4-.4 0-.1 0-.2.1-.3zM7.8 16c0 .4.3.8.8.8h9.5c.4 0 .8-.3.8-.8s-.3-.8-.8-.8H8.6c-.5 0-.8.4-.8.8zm0-12c0 .4.3.8.8.8h9.5c.4 0 .8-.3.8-.8s-.3-.8-.8-.8H8.6c-.5 0-.8.4-.8.8zm-1.3 9.8l-2.4 3.4c-.1.2-.4.2-.6.1l-.1-.1-2.2-3.4c-.1-.2-.1-.4.1-.6.1 0 .1-.1.2-.1h4.6c.2 0 .4.2.4.4.1.1.1.2 0 .3z"/></svg>