<svg xmlns="http://www.w3.org/2000/svg" viewBox="0 0 20 20"><path d="M2 4l2-2c.1-.1.2-.2.5-.2s.4.1.6.2l13.1 13.1c.1.1.2.3.2.5 0 .3-.1.4-.2.5l-2 1.9c-.2.2-.3.3-.6.3s-.4-.1-.5-.2l-13-13c-.1-.1-.3-.3-.3-.5 0-.3 0-.4.2-.6zm6.1 2.8L4.9 3.6 3.7 4.8 6.8 8s1.3-1.1 1.3-1.2zm9-5.1l.3 1 1.1.4-1 .4-.4 1-.4-1-1.1-.3 1.1-.4c-.1 0 .4-1.1.4-1.1zm-3.5.6l.7 2.1 2.1.7-2.1.7-.7 2.2-.8-2.2-2.1-.6 2.1-.7c.1 0 .6-2.1.8-2.2zM10 1.7l.3 1 1.1.4-1 .4-.4 1-.3-.9-1.1-.4 1.1-.4c-.1 0 .3-1.1.3-1.1zm-7 7l.4.9 1.1.4-1.1.4-.4 1.1-.4-.9-1.1-.4 1.1-.4.4-1.1z"/></svg>