<svg xmlns="http://www.w3.org/2000/svg" viewBox="0 0 20 20" style="enable-background:new 0 0 20 20" xml:space="preserve"><path d="M15.4 16.7H4.6c-.7 0-1.3-.6-1.3-1.3V4.6c0-.7.6-1.3 1.3-1.3h10.8c.7 0 1.3.6 1.3 1.3v10.8c0 .7-.6 1.3-1.3 1.3zM2 4v12c0 1.1.9 2 2 2h12c1.1 0 2-.9 2-2V4c0-1.1-.9-2-2-2H4c-1.1 0-2 .9-2 2z"/><path d="M14.1 5.8c.9 1.1 1.4 2.5 1.4 4.2s-.5 3.1-1.4 4.2c-1 1.1-2.4 1.7-4.1 1.7s-3.1-.6-4-1.7-1.4-2.5-1.4-4.2.5-3.1 1.4-4.2c1-1.2 2.3-1.7 4.1-1.7 1.7 0 3 .5 4 1.7zM7 6.6c-.7.9-1.1 2-1.1 3.4s.4 2.5 1.1 3.4 1.8 1.3 3.1 1.3 2.4-.4 3.1-1.3c.7-.9 1.1-2 1.1-3.4 0-1.5-.4-2.6-1.1-3.5-.8-.8-1.8-1.3-3.1-1.3-1.4 0-2.4.5-3.1 1.4z"/></svg>